# xmcd
#
# Track frame offsets:
#	150
#	19573
#	38020
#	62108
#	85468
#	108135
#	123503
#	146873
#	164158
#	188095
#
# Disc length: 2818 seconds
#
# Revision: 1
# Processed by: cddbd v1.4PL0 Copyright (c) Steve Scherf et al.
# Submitted via: EasyCDDAExtractor 5.0.7
#
DISCID=880b000a
DTITLE=Thanh Tuyen - Chuyen 3 Nguoi
DYEAR=1900
DGENRE=Vietnamese
TTITLE0=Tien Biet
TTITLE1=Chuyen 3 Nguoi
TTITLE2=Xin Con Goi Ten Nhau
TTITLE3=Ha Tien
TTITLE4=Nguoi Dep Trong Mo
TTITLE5=Than Kinh Thuong Nho
TTITLE6=Ve Da Mai Toc Nguoi Thuong
TTITLE7=Can Nha Ngoai O
TTITLE8=Hoa Bien
TTITLE9=Em Gai Nho
EXTD=
EXTT0=
EXTT1=
EXTT2=
EXTT3=
EXTT4=
EXTT5=
EXTT6=
EXTT7=
EXTT8=
EXTT9=
PLAYORDER=
